<?xml version="1.0" encoding="utf-8"?>
<!-- Generator: Adobe Illustrator 26.3.1, SVG Export Plug-In . SVG Version: 6.00 Build 0)  -->
<svg version="1.1" id="Layer_1" xmlns="http://www.w3.org/2000/svg" xmlns:xlink="http://www.w3.org/1999/xlink" x="0px" y="0px"
	 viewBox="0 0 663.6 575.7" style="enable-background:new 0 0 663.6 575.7;" xml:space="preserve">
<style type="text/css">
	.st0{opacity:0.676;}
	.st1{clip-path:url(#SVGID_00000089555575390320222240000010655020635802486421_);}
	.st2{fill:none;stroke:#DEDEDE;stroke-linecap:round;stroke-linejoin:round;}
	.st3{fill:#DEDEDE;}
	.st4{font-family:'SegoeUI';}
	.st5{font-size:25px;}
	.st6{fill:none;stroke:#DEDEDE;stroke-linecap:round;stroke-linejoin:round;stroke-dasharray:2.621,2.621;}
	.st7{fill:none;stroke:#DEDEDE;stroke-linecap:round;stroke-linejoin:round;stroke-dasharray:2.735,2.735;}
	.st8{fill:none;stroke:#DEDEDE;stroke-linecap:round;stroke-linejoin:round;stroke-dasharray:3,3;}
	.st9{font-size:24.9875px;}
	.st10{fill:none;}
	.st11{fill:#74C3CF;}
	.st12{fill:#F49F55;}
	.st13{clip-path:url(#SVGID_00000157283388520388503500000006827122208425604026_);}
	.st14{fill:#F9C697;}
	.st15{fill:#F5A053;}
	.st16{fill:#FFFFFF;}
	.st17{fill:#B9E1E7;}
	.st18{fill:#52B5C3;}
	.st19{fill:#94D0AF;}
	.st20{fill:#4DB27B;}
	.st21{fill:#4C3D8F;}
	.st22{clip-path:url(#SVGID_00000096028130240371444430000014302283836497428619_);}
</style>
<g id="Group_4904" transform="translate(-268.401 -287.785)">
	<g id="Group_4902" transform="translate(298.213 427.446)" class="st0">
		<g>
			<defs>
				<rect id="SVGID_1_" x="0" y="0" width="583" height="406"/>
			</defs>
			<clipPath id="SVGID_00000129902840453522048850000016643339165866806691_">
				<use xlink:href="#SVGID_1_"  style="overflow:visible;"/>
			</clipPath>
			
				<g id="Group_4901" transform="translate(0 0)" style="clip-path:url(#SVGID_00000129902840453522048850000016643339165866806691_);">
				<path id="Path_7975" class="st2" d="M252,25.7l-117.9,95L1.6,56.3L252,25.7z"/>
				<path id="Path_7976" class="st2" d="M157.5,101.8c-14.5-7-36.7-4.3-49.6,6.1l26.2,12.7L157.5,101.8z"/>
				<path id="Path_7977" class="st2" d="M36.7,52c0.6,5.7-2.3,11.8-8.8,17L1.6,56.3L36.7,52z"/>
				<path id="Path_7978" class="st2" d="M252,25.7l-23.4,18.8c-7.2-3.5-11.2-8.8-11.7-14.5L252,25.7z"/>
				<text transform="matrix(0.6546 -0.756 0.756 0.6546 126.3369 24.1734)" class="st3 st4 st5">a</text>
				<text transform="matrix(0.6546 -0.756 0.756 0.6546 45.716 115.3492)" class="st3 st4 st5">b</text>
				<text transform="matrix(0.6546 -0.756 0.756 0.6546 212.7661 96.2262)" class="st3 st4 st5">c</text>
				<line id="Line_18" class="st2" x1="336.2" y1="149.1" x2="448.1" y2="224.3"/>
				<line id="Line_19" class="st2" x1="423.3" y1="227.6" x2="529.2" y2="71.4"/>
				<path id="Path_7979" class="st2" d="M371.1,187.3c-3.8-25-4.7-47.2,3.6-59.5c15.2-22.4,45.2-2.3,65.2-31.8
					c18.2-26.8-6.5-51.2-13.3-60.6"/>
				<path id="Path_7980" class="st2" d="M340.5,163.4l-2.2-7.2l-2.2-7.2l7.5-0.7l7.5-0.7"/>
				<path id="Path_7981" class="st2" d="M514.8,75.3l7.2-1.9l7.2-1.9l0.9,7.4l0.9,7.4"/>
				<line id="Line_20" class="st2" x1="368.8" y1="146.5" x2="444" y2="197"/>
				<line id="Line_21" class="st2" x1="382.5" y1="120.3" x2="460.5" y2="172.7"/>
				<line id="Line_22" class="st2" x1="421.5" y1="111.1" x2="477" y2="148.4"/>
				<line id="Line_23" class="st2" x1="443.2" y1="90.3" x2="493.5" y2="124.1"/>
				<line id="Line_24" class="st2" x1="438.7" y1="51.9" x2="510" y2="99.7"/>
				<path id="Path_7982" class="st2" d="M468.3,353l-44.8-38.9l-72.6,6.2l-27.8,45.1l44.8,38.9l72.6-6.2L468.3,353z"/>
				<path id="Path_7983" class="st2" d="M323.1,365.4l72.6-6.2l27.8-45.1"/>
				<line id="Line_25" class="st2" x1="367.9" y1="404.4" x2="370.5" y2="400.2"/>
				<line id="Line_26" class="st6" x1="375.1" y1="392.8" x2="390.9" y2="367.1"/>
				<path id="Path_7984" class="st2" d="M393.1,363.4l2.6-4.2l4.9-0.4"/>
				<line id="Line_27" class="st7" x1="409.6" y1="358.1" x2="458.9" y2="353.8"/>
				<line id="Line_28" class="st2" x1="463.4" y1="353.5" x2="468.3" y2="353"/>
				<line id="Line_29" class="st8" x1="350.9" y1="320.3" x2="395.7" y2="359.2"/>
				<line id="Line_30" class="st2" x1="395.7" y1="359.2" x2="440.6" y2="398.2"/>
				<text transform="matrix(0.6113 -0.7914 0.7914 0.6113 528.4641 326.0983)" class="st3 st4 st9">3</text>
				<text transform="matrix(0.6113 -0.7914 0.7914 0.6113 562.702 347.0464)" class="st3 st4 st9">5</text>
				<line id="Line_31" class="st2" x1="533.1" y1="336.7" x2="553.2" y2="313.7"/>
				<line id="Line_32" class="st2" x1="162.6" y1="227.8" x2="270" y2="300"/>
				<line id="Line_33" class="st2" x1="201.4" y1="361.9" x2="309.9" y2="216.7"/>
				<path id="Path_7985" class="st2" d="M165.2,243.1l-1.3-7.6l-1.3-7.6l8-1.4l8-1.4"/>
				<path id="Path_7986" class="st2" d="M294.1,222.2l7.9-2.7l7.9-2.7l-0.1,8l-0.1,8"/>
				<path id="Path_7987" class="st2" d="M231.6,186.7C268,211.2,278,257,253.9,289.2s-73,38.4-109.4,14"/>
			</g>
		</g>
	</g>
	<g id="Path_7973" transform="matrix(0.883, -0.469, 0.469, 0.883, 268.401, 542.98)">
		<path class="st10" d="M268.8,0.1c150.1,2.8,273.1,75.8,274.8,163.1S424.9,319,274.8,316.2S1.7,240.4,0,153.1S118.7-2.7,268.8,0.1z
			"/>
		<path class="st11" d="M260.1,3c-23.7,0-47.2,1.8-69.6,5.4c-21.8,3.5-42.7,8.6-62.1,15.2C109.2,30.1,91.6,38,76.1,47.1
			c-15.5,9.1-28.9,19.4-39.8,30.5c-11,11.2-19.4,23.2-25,35.8c-5.7,12.8-8.5,26.2-8.3,39.7c0.2,10.4,2.2,20.8,5.9,31
			c3.7,9.9,9,19.8,16,29.2c6.9,9.3,15.3,18.3,25.1,26.8c9.7,8.4,20.9,16.4,33.2,23.7c12.3,7.3,25.8,14,40.2,19.8
			c14.5,5.9,30,11.1,46.1,15.3c16.4,4.3,33.5,7.7,50.8,10.1c17.8,2.4,36.2,3.9,54.5,4.2c2.9,0.1,5.8,0.1,8.7,0.1
			c23.7,0,47.2-1.8,69.6-5.4c21.8-3.5,42.7-8.6,62.1-15.2c19.1-6.5,36.6-14.4,52.2-23.6c15.5-9.1,28.9-19.4,39.8-30.5
			c11-11.2,19.4-23.2,25-35.8c5.7-12.8,8.5-26.2,8.3-39.7c-0.2-10.4-2.2-20.8-5.9-31c-3.7-9.9-9-19.8-16-29.2
			c-6.9-9.3-15.3-18.3-25.1-26.8c-9.7-8.4-20.9-16.4-33.2-23.7c-12.3-7.3-25.8-14-40.2-19.8c-14.5-5.9-30-11.1-46.1-15.3
			c-16.4-4.3-33.5-7.7-50.8-10.1c-17.8-2.4-36.2-3.9-54.5-4.2C265.9,3,262.9,3,260.1,3 M260.1,0c2.9,0,5.8,0,8.8,0.1
			c150.1,2.8,273.1,75.8,274.8,163.1c1.6,85.6-114,153.1-260,153.1c-2.9,0-5.8,0-8.8-0.1C124.7,313.4,1.7,240.4,0,153.1
			C-1.6,67.6,114.1,0,260.1,0z"/>
	</g>
	<g id="Path_7974" transform="matrix(0.883, -0.469, 0.469, 0.883, 303.536, 584.226)">
		<path class="st10" d="M268.8,0.1c150.1,2.8,273.1,75.8,274.8,163.1S424.9,319,274.8,316.2S1.7,240.4,0,153.1S118.7-2.7,268.8,0.1z
			"/>
		<path class="st12" d="M260.1,3c-23.7,0-47.2,1.8-69.6,5.4c-21.8,3.5-42.7,8.6-62.1,15.2C109.2,30.1,91.6,38,76.1,47.1
			c-15.5,9.1-28.9,19.4-39.8,30.5c-11,11.2-19.4,23.2-25,35.8c-5.7,12.8-8.5,26.2-8.3,39.7c0.2,10.4,2.2,20.8,5.9,31
			c3.7,9.9,9,19.8,16,29.2c6.9,9.3,15.3,18.3,25.1,26.8c9.7,8.4,20.9,16.4,33.2,23.7c12.3,7.3,25.8,14,40.2,19.8
			c14.5,5.9,30,11.1,46.1,15.3c16.4,4.3,33.5,7.7,50.8,10.1c17.8,2.4,36.2,3.9,54.5,4.2c2.9,0.1,5.8,0.1,8.7,0.1
			c23.7,0,47.2-1.8,69.6-5.4c21.8-3.5,42.7-8.6,62.1-15.2c19.1-6.5,36.6-14.4,52.2-23.6c15.5-9.1,28.9-19.4,39.8-30.5
			c11-11.2,19.4-23.2,25-35.8c5.7-12.8,8.5-26.2,8.3-39.7c-0.2-10.4-2.2-20.8-5.9-31c-3.7-9.9-9-19.8-16-29.2
			c-6.9-9.3-15.3-18.3-25.1-26.8c-9.7-8.4-20.9-16.4-33.2-23.7c-12.3-7.3-25.8-14-40.2-19.8c-14.5-5.9-30-11.1-46.1-15.3
			c-16.4-4.3-33.5-7.7-50.8-10.1c-17.8-2.4-36.2-3.9-54.5-4.2C265.9,3,262.9,3,260.1,3 M260.1,0c2.9,0,5.8,0,8.8,0.1
			c150.1,2.8,273.1,75.8,274.8,163.1c1.6,85.6-114,153.1-260,153.1c-2.9,0-5.8,0-8.8-0.1C124.7,313.4,1.7,240.4,0,153.1
			C-1.6,67.6,114.1,0,260.1,0z"/>
	</g>
	<g id="Group_4900" transform="translate(385.987 326.04)">
		<g id="Group_4897" transform="translate(0 0)">
			<g>
				<defs>
					<rect id="SVGID_00000045581657103135198060000004361516087278324384_" x="0" y="0" width="426.2" height="499.2"/>
				</defs>
				<clipPath id="SVGID_00000148661080620477581990000004828651227472042151_">
					<use xlink:href="#SVGID_00000045581657103135198060000004361516087278324384_"  style="overflow:visible;"/>
				</clipPath>
				<g id="Group_4896" style="clip-path:url(#SVGID_00000148661080620477581990000004828651227472042151_);">
					<path id="Path_7963" class="st14" d="M101.1,189.1L20,145.6c-9.5-5.3-13.4-16.9-9.1-26.8L54.3,21c5.8-13,19.6-18.9,30.8-12.9
						L181.6,60c11.2,6,13.7,20.8,5.9,32.7l-58.8,89.5C122.6,191.1,110.7,194.2,101.1,189.1"/>
					<path id="Path_7964" class="st15" d="M92.1,184.3L11,140.7c-9.5-5.3-13.5-16.9-9.3-26.9l42.2-98.4C49.5,2.4,63.2-3.7,74.3,2.3
						l96.5,51.9C182,60.2,184.7,75,177,87l-53.6,83.8l-4,6.3C113.5,186.2,101.7,189.3,92.1,184.3"/>
					<path id="Path_7965" class="st16" d="M69.2,114.5V94.1c0-1.9,1.5-3.4,3.4-3.4h13.6c5.7-0.1,10.2-4.7,10.1-10.3
						c-0.1-5.6-4.6-10.1-10.1-10.1H65.8c-5.7-0.1-10.2-4.7-10.1-10.3c0.1-5.6,4.6-10.1,10.1-10.1h23.9c18.2,0,27.3,9.1,27.3,27.3
						v6.8c0,18.2-9.1,27.3-27.3,27.3v3.3c0,1.9-1.6,3.5-3.5,3.5c0,0,0,0,0,0H72.8C70.8,118,69.2,116.4,69.2,114.5
						C69.2,114.5,69.2,114.5,69.2,114.5 M89.7,128.2v13.6c0,1.9-1.5,3.4-3.4,3.4l0,0H72.6c-1.9,0-3.4-1.5-3.4-3.4l0,0v-13.6
						c0-1.9,1.5-3.4,3.4-3.4l0,0h13.6C88.2,124.8,89.7,126.4,89.7,128.2L89.7,128.2"/>
					<path id="Path_7966" class="st17" d="M411.1,39.1L319.1,8.7c-10.9-3.5-22.6,1.9-27.1,12.4l-43.3,103.8
						c-5.8,13.8-0.3,28.7,12.4,32.9L370.6,194c12.7,4.2,25.8-4.5,29.2-19.1l25.9-109.6C428.1,54.1,421.9,42.8,411.1,39.1"/>
					<path id="Path_7967" class="st18" d="M400.8,35.7L308.9,5.3c-10.9-3.4-22.7,1.9-27.3,12.3L236.9,121
						c-5.9,13.7-0.6,28.6,12,32.8L358.4,190c12.7,4.2,25.9-4.5,29.6-19l27.2-109.2C417.8,50.7,411.6,39.4,400.8,35.7"/>
					<path id="Path_7968" class="st16" d="M338.2,125.3c1.8,0,3.7,0.1,5.6,0.2c0.5,0,1,0.1,1.4,0.1c2.7,0.3,4.7,2.4,4.9,5
						c0,0,0,0,0,0c0.2,2.6,0.1,5.3-0.4,7.9c0,0,0,0.1,0,0.1c-0.5,2.4-2.5,4.3-5,4.5c-0.5,0-1,0.1-1.5,0.1c-1.8,0.1-3.5,0.2-5.2,0.2
						c-1.7,0-3.4-0.1-5.2-0.2c-0.5,0-1-0.1-1.5-0.1c-2.5-0.2-4.5-2.1-4.9-4.5l0-0.1c-0.5-2.6-0.6-5.3-0.3-7.9v0c0.2-2.7,2.3-4.8,5-5
						c0.5,0,1-0.1,1.4-0.1C334.5,125.3,336.3,125.2,338.2,125.3 M323.1,53.6c-0.2-3,2.1-5.6,5.1-5.8c1-0.1,1.9-0.1,2.8-0.2
						c2.7-0.1,5.2-0.1,7.5-0.1c2.4,0,4.8,0.1,7.4,0.2c1,0,2,0.1,3,0.2c3,0.3,5.1,2.9,4.9,5.9l-4,56.3c-0.2,2.6-2.2,4.8-4.9,5.1
						c-0.6,0.1-1.2,0.1-1.7,0.2c-1.8,0.1-3.5,0.2-5.1,0.2c-2.3,0-4.5-0.2-6.8-0.5c-2.6-0.3-4.7-2.5-4.9-5.1L323.1,53.6z"/>
					<path id="Path_7969" class="st19" d="M304.6,96.6c0,46.8-35.9,84.7-80.3,84.7s-80.3-37.9-80.3-84.7s35.9-84.7,80.3-84.7
						S304.6,49.8,304.6,96.6"/>
					<path id="Path_7970" class="st20" d="M290,96.6c0,46.8-35.9,84.7-80.3,84.7s-80.3-37.9-80.3-84.7s35.9-84.7,80.3-84.7
						S290,49.8,290,96.6"/>
					<path id="Path_7971" class="st16" d="M164.6,88.4L164.6,88.4c-5.4,5.5-5.4,14.2,0,19.6l25,24.7c4.8,4.8,12.5,4.8,17.3,0.1
						c0.1-0.1,0.1-0.1,0.2-0.2l54-54.8c5.2-5.4,5.2-14.1-0.1-19.5c-4.8-4.8-12.5-4.8-17.3-0.1c-0.1,0.1-0.2,0.2-0.2,0.3l-42.2,43.3
						c-1.5,1.5-3.9,1.6-5.5,0.1c0,0-0.1-0.1-0.1-0.1L182,88.4C177.2,83.6,169.5,83.5,164.6,88.4C164.6,88.3,164.6,88.4,164.6,88.4"
						/>
				</g>
			</g>
		</g>
		<path id="Path_7972" class="st21" d="M174.4,309.8c-3.1,0.1-6.2-0.6-9-2.1c-2.2-1.3-4.1-3.2-5.3-5.5c-1.1,2.7-3.3,4.9-6,6
			c-3.5,1.2-7.3,1.7-11,1.6h-5.5c-2.6,0.1-5.2-0.4-7.7-1.3c-2-0.8-3.7-2-5.1-3.7v1.8c0.1,5.2-0.8,10.4-2.8,15.2
			c-1.7,4-4.3,7.5-7.6,10.3c-3.3,2.8-7.2,4.8-11.4,6c-4.6,1.3-9.3,1.9-14.1,1.9c-4.7,0-9.4-0.6-14-1.9c-4.2-1.2-8.1-3.2-11.6-6
			c-3.4-2.8-6.1-6.4-7.9-10.5c-2-4.9-3-10.1-2.9-15.4c0-4.9,0.7-9.8,2.1-14.6c1.3-4.7,3.2-9.3,5.7-13.5c0.4-0.6,1.1-0.7,2.1-0.4
			l15.3,5c0.5,0.2,0.7,0.5,0.8,0.8c0,0.4,0,0.7-0.2,1.1c-1.4,2.9-2.7,5.9-3.7,8.9c-1.2,3.6-1.8,7.4-1.7,11.2
			c-0.1,2.9,0.4,5.7,1.4,8.4c0.8,2.1,2.1,4,3.8,5.5c1.5,1.4,3.3,2.4,5.2,3c1.9,0.6,3.9,0.9,5.9,0.9c4.8,0,8.6-1.3,11.3-4
			s4.1-7,4.1-12.8v-44.1c-0.1-0.7,0.4-1.3,1.1-1.4c0.1,0,0.2,0,0.4,0h17.3c0.7-0.1,1.3,0.4,1.4,1.1c0,0.1,0,0.2,0,0.4V285
			c0,3,0.9,5.1,2.8,6.1c1.9,1,4.1,1.6,6.2,1.6c1.5,0,2.9-0.1,4.3-0.6c1-0.3,1.8-0.9,2.3-1.7c0.5-0.9,0.8-2,0.9-3
			c0.2-1.6,0.2-3.2,0.2-4.7v-20.8c-0.1-0.7,0.4-1.3,1.1-1.4c0.1,0,0.2,0,0.4,0h17.3c0.7-0.1,1.3,0.4,1.4,1.1c0,0.1,0,0.2,0,0.4v23.1
			c0,3.2,1,5.3,2.9,6.3c2,1,4.3,1.5,6.6,1.5c1.4,0.1,2.8-0.1,4.1-0.6c0.9-0.3,1.6-1,2.1-1.8c0.5-1,0.8-2,0.9-3.1
			c0.1-1.3,0.1-2.9,0.1-4.7v-30.9c-0.1-0.7,0.4-1.3,1.1-1.4c0.1,0,0.2,0,0.4,0h17.3c0.7-0.1,1.3,0.4,1.4,1.1c0,0.1,0,0.2,0,0.4V285
			c0.1,2.2,1.2,4.3,3,5.6c1.8,1.4,4.4,2.1,7.7,2.1h3.1c1.7-0.1,3.3,0.6,4.3,2c0.9,1.3,1.4,3.5,1.4,6.5c0,5.8-1.9,8.6-5.7,8.6
			c-3.1,0.1-6.3-0.4-9.3-1.3c-2.8-1.1-5.1-3.1-6.6-5.7c-1.2,2.5-3.2,4.5-5.7,5.6c-2.9,1.1-5.9,1.6-8.9,1.5L174.4,309.8z
			 M213.1,309.8c-1.6,0.1-3.3-0.5-4.3-1.8c-0.9-1.2-1.3-3.5-1.3-6.9c0-3,0.5-5.2,1.4-6.5c1-1.3,2.6-2.1,4.3-2H224
			c-1.5-3.1-2.3-7.4-2.3-12.8c0-6.2,0.9-11.4,2.6-15.5c1.5-3.8,3.9-7.2,7-9.9c2.9-2.5,6.4-4.2,10.1-5.2c3.8-1,7.7-1.6,11.6-1.6
			c4,0,8,0.5,11.9,1.6c3.7,1,7.1,2.8,10,5.2c3,2.7,5.4,6.1,6.9,9.9c1.7,4.1,2.6,9.3,2.6,15.5c0.1,4.9-0.7,9.8-2.4,14.4
			c-1.4,3.6-3.7,6.7-6.6,9.2c-2.9,2.4-6.3,4-9.9,4.9c-4.1,1-8.2,1.4-12.4,1.4L213.1,309.8z M264.7,279.2c0-9.5-3.9-14.3-11.6-14.3
			c-7.7,0-11.6,4.6-11.6,13.9c0,5.5,1,9.3,2.9,11.3c1.9,2.1,4.8,3.1,8.7,3.1c3.9,0,6.8-1,8.7-3C263.7,288.1,264.7,284.5,264.7,279.2
			L264.7,279.2z M244.1,235.8c-0.7,0.1-1.3-0.4-1.4-1.1c0-0.1,0-0.2,0-0.4v-13.9c-0.1-0.7,0.4-1.3,1.1-1.4c0.1,0,0.2,0,0.4,0h17.6
			c0.7-0.1,1.3,0.4,1.4,1.1c0,0.1,0,0.2,0,0.4v13.9c0.1,0.7-0.4,1.3-1.1,1.4c-0.1,0-0.2,0-0.4,0L244.1,235.8z M299.7,214.8
			c-0.1-0.7,0.4-1.3,1.1-1.4c0.1,0,0.2,0,0.4,0h17.2c0.7-0.1,1.3,0.4,1.4,1.1c0,0.1,0,0.2,0,0.4v70.3c0,2.8,0.5,4.8,1.6,5.9
			c1.1,1.1,2.8,1.6,5.2,1.6h3.8c1.7-0.1,3.3,0.7,4.3,2.1c0.9,1.4,1.4,3.7,1.4,6.9c0,3.4-0.4,5.6-1.3,6.7c-1.1,1.1-2.7,1.7-4.3,1.6
			h-14c-6,0-10.2-1.4-12.8-4.3c-2.6-2.9-3.8-7.4-3.8-13.5L299.7,214.8z M330.7,309.8c-1.5,0.1-3-0.2-4.3-1c-0.9-0.7-1.4-2-1.4-4
			c0-1.3,0.1-2.6,0.4-3.8c0.2-1.3,0.6-2.7,1-4c0.4-1.1,0.9-2.2,1.7-3.1c0.6-0.8,1.6-1.3,2.6-1.3h5c2.4,0,4.1-0.5,5.2-1.6
			c1.1-1.1,1.6-3,1.6-5.9v-33.6c-0.1-0.7,0.4-1.3,1.1-1.4c0.1,0,0.2,0,0.4,0h17.3c0.7-0.1,1.3,0.4,1.4,1.1c0,0.1,0,0.2,0,0.4v40.4
			c0,6.1-1.3,10.7-3.8,13.5s-6.8,4.3-12.8,4.3H330.7z M343.8,235.8c-0.7,0.1-1.3-0.4-1.4-1.1c0-0.1,0-0.2,0-0.4v-13.9
			c-0.1-0.7,0.4-1.3,1.1-1.4c0.1,0,0.2,0,0.4,0h17.6c0.7-0.1,1.3,0.4,1.4,1.1c0,0.1,0,0.2,0,0.4v13.9c0.1,0.7-0.4,1.3-1.1,1.4
			c-0.1,0-0.2,0-0.4,0L343.8,235.8z"/>
		<g id="Group_4899" transform="translate(0 0)">
			<g>
				<defs>
					<rect id="SVGID_00000072985507728191890520000017576227883102046643_" x="0" y="0" width="426.2" height="499.2"/>
				</defs>
				<clipPath id="SVGID_00000137114793448979414680000006498973285434095272_">
					<use xlink:href="#SVGID_00000072985507728191890520000017576227883102046643_"  style="overflow:visible;"/>
				</clipPath>
				<g style="clip-path:url(#SVGID_00000137114793448979414680000006498973285434095272_);">
					<g>
						<path class="st21" d="M128.5,439.9h-11.3l-40.4-62.5c-1-1.6-1.9-3.2-2.5-4.9h-0.3c0.3,1.7,0.4,5.3,0.4,10.8v56.7h-9.2v-78.4
							h11.9l39.3,61.5c1.6,2.6,2.7,4.3,3.2,5.2h0.2c-0.4-2.3-0.5-6.1-0.5-11.5v-55.2h9.2V439.9z"/>
						<path class="st21" d="M218.7,439.9h-10.2l-8.3-22h-33.2l-7.8,22h-10.2l30.1-78.4h9.5L218.7,439.9z M197.2,409.7l-12.3-33.4
							c-0.4-1.1-0.8-2.8-1.2-5.2h-0.2c-0.4,2.2-0.8,4-1.3,5.2L170,409.7H197.2z"/>
						<path class="st21" d="M278.9,369.8h-30.6V397h28.3v8.3h-28.3v34.7H239v-78.4h39.8V369.8z"/>
					</g>
					<g>
						<path class="st21" d="M299.2,436.8v-10.8c1.2,1.1,2.7,2.1,4.5,3c1.7,0.9,3.6,1.6,5.5,2.2s3.8,1.1,5.8,1.4
							c1.9,0.3,3.7,0.5,5.4,0.5c5.7,0,9.9-1,12.7-3.1c2.8-2.1,4.2-5.1,4.2-9.1c0-2.1-0.5-4-1.4-5.5c-0.9-1.6-2.2-3-3.9-4.3
							c-1.6-1.3-3.6-2.5-5.8-3.7c-2.2-1.2-4.7-2.4-7.2-3.7c-2.7-1.4-5.3-2.8-7.7-4.2c-2.4-1.4-4.4-3-6.2-4.7
							c-1.8-1.7-3.1-3.7-4.1-5.8c-1-2.2-1.5-4.7-1.5-7.6c0-3.6,0.8-6.7,2.4-9.3c1.6-2.6,3.6-4.8,6.2-6.5c2.6-1.7,5.5-3,8.7-3.8
							c3.3-0.8,6.6-1.3,10-1.3c7.7,0,13.4,0.9,16.9,2.8v10.3c-4.6-3.2-10.6-4.8-17.8-4.8c-2,0-4,0.2-6,0.6c-2,0.4-3.8,1.1-5.4,2.1
							c-1.6,0.9-2.8,2.2-3.8,3.7c-1,1.5-1.5,3.3-1.5,5.5c0,2,0.4,3.7,1.1,5.2c0.7,1.5,1.8,2.8,3.3,4c1.5,1.2,3.2,2.4,5.3,3.5
							c2.1,1.1,4.5,2.4,7.2,3.7c2.8,1.4,5.5,2.8,8,4.4s4.7,3.2,6.6,5.1c1.9,1.9,3.4,3.9,4.5,6.2c1.1,2.3,1.7,4.8,1.7,7.8
							c0,3.9-0.8,7.1-2.3,9.8c-1.5,2.7-3.6,4.9-6.1,6.5c-2.6,1.7-5.5,2.9-8.9,3.6c-3.4,0.7-6.9,1.1-10.6,1.1c-1.2,0-2.8-0.1-4.6-0.3
							c-1.8-0.2-3.7-0.5-5.6-0.9c-1.9-0.4-3.7-0.9-5.4-1.4C301.6,438.1,300.3,437.5,299.2,436.8z"/>
					</g>
				</g>
			</g>
		</g>
	</g>
</g>
</svg>
